<mxfile host="app.diagrams.net" modified="2023-04-10T16:50:15.849Z" agent="Mozilla/5.0 (Windows NT 10.0; Win64; x64) AppleWebKit/537.36 (KHTML, like Gecko) Chrome/110.0.0.0 Safari/537.36" etag="xWL2gBwCQYd5xNV79o9M" version="21.1.5" type="device">
  <diagram name="第 1 页" id="5Je22Ao2mOIkfj3nEzpw">
    <mxGraphModel dx="1221" dy="687" grid="1" gridSize="10" guides="1" tooltips="1" connect="1" arrows="1" fold="1" page="1" pageScale="1" pageWidth="827" pageHeight="1169" math="0" shadow="0">
      <root>
        <mxCell id="0" />
        <mxCell id="1" parent="0" />
        <mxCell id="MFLTSdnWLh1GmXmubi2J-1" value="&lt;p align=&quot;center&quot; class=&quot;MsoNormal&quot;&gt;&lt;span&gt;&lt;font style=&quot;font-size: 20px;&quot;&gt;基于深度学习的喉癌类病灶区域识别与诊断系统&lt;/font&gt;&lt;span style=&quot;font-size:18.0pt;font-family:宋体&quot;&gt;&lt;/span&gt;&lt;/span&gt;&lt;/p&gt;" style="rounded=1;whiteSpace=wrap;html=1;rotation=0;fillColor=#1ba1e2;strokeColor=#006EAF;fontStyle=1;fontColor=#ffffff;" vertex="1" parent="1">
          <mxGeometry x="114" y="30" width="600" height="30" as="geometry" />
        </mxCell>
        <mxCell id="MFLTSdnWLh1GmXmubi2J-2" value="" style="rounded=1;whiteSpace=wrap;html=1;fontStyle=1;fillColor=#dae8fc;strokeColor=#6c8ebf;" vertex="1" parent="1">
          <mxGeometry x="114" y="80" width="596" height="130" as="geometry" />
        </mxCell>
        <mxCell id="MFLTSdnWLh1GmXmubi2J-5" value="应&lt;br style=&quot;font-size: 15px;&quot;&gt;用&lt;br style=&quot;font-size: 15px;&quot;&gt;层" style="text;strokeColor=none;align=center;fillColor=none;html=1;verticalAlign=middle;whiteSpace=wrap;rounded=0;fontStyle=1;fontSize=15;" vertex="1" parent="1">
          <mxGeometry x="120" y="102" width="60" height="70" as="geometry" />
        </mxCell>
        <mxCell id="MFLTSdnWLh1GmXmubi2J-6" value="医生注册" style="rounded=0;whiteSpace=wrap;html=1;fontStyle=1;fillColor=#0050ef;fontColor=#ffffff;strokeColor=#001DBC;" vertex="1" parent="1">
          <mxGeometry x="190" y="89" width="60" height="30" as="geometry" />
        </mxCell>
        <mxCell id="MFLTSdnWLh1GmXmubi2J-7" value="医生登录" style="rounded=0;whiteSpace=wrap;html=1;fontStyle=1;fillColor=#0050ef;fontColor=#ffffff;strokeColor=#001DBC;" vertex="1" parent="1">
          <mxGeometry x="190" y="130" width="60" height="30" as="geometry" />
        </mxCell>
        <mxCell id="MFLTSdnWLh1GmXmubi2J-8" value="患者注册" style="rounded=0;whiteSpace=wrap;html=1;fontStyle=1;fillColor=#0050ef;fontColor=#ffffff;strokeColor=#001DBC;" vertex="1" parent="1">
          <mxGeometry x="270" y="89" width="60" height="30" as="geometry" />
        </mxCell>
        <mxCell id="MFLTSdnWLh1GmXmubi2J-9" value="患者登录" style="rounded=0;whiteSpace=wrap;html=1;fontStyle=1;fillColor=#0050ef;fontColor=#ffffff;strokeColor=#001DBC;" vertex="1" parent="1">
          <mxGeometry x="270" y="130" width="60" height="30" as="geometry" />
        </mxCell>
        <mxCell id="MFLTSdnWLh1GmXmubi2J-10" value="查看历史记录" style="rounded=0;whiteSpace=wrap;html=1;fontStyle=1;fillColor=#0050ef;fontColor=#ffffff;strokeColor=#001DBC;" vertex="1" parent="1">
          <mxGeometry x="190" y="170" width="140" height="30" as="geometry" />
        </mxCell>
        <mxCell id="MFLTSdnWLh1GmXmubi2J-11" value="加载模型" style="rounded=0;whiteSpace=wrap;html=1;fontStyle=1;fillColor=#0050ef;fontColor=#ffffff;strokeColor=#001DBC;" vertex="1" parent="1">
          <mxGeometry x="414" y="89" width="90" height="30" as="geometry" />
        </mxCell>
        <mxCell id="MFLTSdnWLh1GmXmubi2J-12" value="上传影像" style="rounded=0;whiteSpace=wrap;html=1;fontStyle=1;fillColor=#0050ef;fontColor=#ffffff;strokeColor=#001DBC;" vertex="1" parent="1">
          <mxGeometry x="540" y="89" width="90" height="30" as="geometry" />
        </mxCell>
        <mxCell id="MFLTSdnWLh1GmXmubi2J-13" value="预览影像文件" style="rounded=0;whiteSpace=wrap;html=1;fontStyle=1;fillColor=#0050ef;fontColor=#ffffff;strokeColor=#001DBC;" vertex="1" parent="1">
          <mxGeometry x="414" y="130" width="216" height="20" as="geometry" />
        </mxCell>
        <mxCell id="MFLTSdnWLh1GmXmubi2J-14" value="....................." style="text;strokeColor=none;align=center;fillColor=none;html=1;verticalAlign=middle;whiteSpace=wrap;rounded=0;fontStyle=1" vertex="1" parent="1">
          <mxGeometry x="410" y="160" width="230" height="10" as="geometry" />
        </mxCell>
        <mxCell id="MFLTSdnWLh1GmXmubi2J-15" value="喉癌病灶区域的识别与诊断" style="rounded=0;whiteSpace=wrap;html=1;fontStyle=1;fillColor=#0050ef;fontColor=#ffffff;strokeColor=#001DBC;" vertex="1" parent="1">
          <mxGeometry x="414" y="180" width="216" height="20" as="geometry" />
        </mxCell>
        <mxCell id="MFLTSdnWLh1GmXmubi2J-16" value="" style="rounded=1;whiteSpace=wrap;html=1;fillColor=#fff2cc;strokeColor=#d6b656;gradientColor=#ffd966;" vertex="1" parent="1">
          <mxGeometry x="116" y="237" width="596" height="40" as="geometry" />
        </mxCell>
        <mxCell id="MFLTSdnWLh1GmXmubi2J-17" value="业务&lt;br&gt;服务层" style="text;strokeColor=none;align=center;fillColor=none;html=1;verticalAlign=middle;whiteSpace=wrap;rounded=0;fontStyle=1;fontSize=15;" vertex="1" parent="1">
          <mxGeometry x="114" y="222" width="70" height="70" as="geometry" />
        </mxCell>
        <mxCell id="MFLTSdnWLh1GmXmubi2J-18" value="用户管理" style="rounded=0;whiteSpace=wrap;html=1;fontStyle=1;fillColor=#0050ef;fontColor=#ffffff;strokeColor=#001DBC;" vertex="1" parent="1">
          <mxGeometry x="190" y="242" width="60" height="30" as="geometry" />
        </mxCell>
        <mxCell id="MFLTSdnWLh1GmXmubi2J-19" value="病灶检测" style="rounded=0;whiteSpace=wrap;html=1;fontStyle=1;fillColor=#0050ef;fontColor=#ffffff;strokeColor=#001DBC;" vertex="1" parent="1">
          <mxGeometry x="260" y="242" width="60" height="30" as="geometry" />
        </mxCell>
        <mxCell id="MFLTSdnWLh1GmXmubi2J-20" value="诊断报告" style="rounded=0;whiteSpace=wrap;html=1;fontStyle=1;fillColor=#0050ef;fontColor=#ffffff;strokeColor=#001DBC;" vertex="1" parent="1">
          <mxGeometry x="410" y="242" width="60" height="30" as="geometry" />
        </mxCell>
        <mxCell id="MFLTSdnWLh1GmXmubi2J-21" value="............." style="rounded=0;whiteSpace=wrap;html=1;fontStyle=1;fillColor=#0050ef;fontColor=#ffffff;strokeColor=#001DBC;" vertex="1" parent="1">
          <mxGeometry x="490" y="242" width="140" height="30" as="geometry" />
        </mxCell>
        <mxCell id="MFLTSdnWLh1GmXmubi2J-22" value="" style="rounded=1;whiteSpace=wrap;html=1;fillColor=#fad7ac;strokeColor=#b46504;" vertex="1" parent="1">
          <mxGeometry x="114" y="388" width="596" height="192" as="geometry" />
        </mxCell>
        <mxCell id="MFLTSdnWLh1GmXmubi2J-23" value="数&lt;br&gt;据&lt;br&gt;中&lt;br&gt;心" style="text;strokeColor=none;align=center;fillColor=none;html=1;verticalAlign=middle;whiteSpace=wrap;rounded=0;fontStyle=1;fontSize=15;" vertex="1" parent="1">
          <mxGeometry x="116" y="405" width="60" height="150" as="geometry" />
        </mxCell>
        <mxCell id="MFLTSdnWLh1GmXmubi2J-24" value="" style="shape=singleArrow;direction=north;whiteSpace=wrap;html=1;fillColor=#1ba1e2;strokeColor=#006EAF;fontColor=#ffffff;" vertex="1" parent="1">
          <mxGeometry x="384" y="210" width="30" height="27" as="geometry" />
        </mxCell>
        <mxCell id="MFLTSdnWLh1GmXmubi2J-27" value="" style="shape=singleArrow;direction=north;whiteSpace=wrap;html=1;fillColor=#1ba1e2;strokeColor=#006EAF;fontColor=#ffffff;" vertex="1" parent="1">
          <mxGeometry x="384" y="277" width="30" height="27" as="geometry" />
        </mxCell>
        <mxCell id="MFLTSdnWLh1GmXmubi2J-28" value="" style="rounded=0;whiteSpace=wrap;html=1;fillColor=#fad7ac;strokeColor=#b46504;" vertex="1" parent="1">
          <mxGeometry x="210" y="393" width="420" height="80" as="geometry" />
        </mxCell>
        <mxCell id="MFLTSdnWLh1GmXmubi2J-29" value="数据处理" style="text;strokeColor=none;align=center;fillColor=none;html=1;verticalAlign=middle;whiteSpace=wrap;rounded=0;fontStyle=1" vertex="1" parent="1">
          <mxGeometry x="369" y="393" width="60" height="30" as="geometry" />
        </mxCell>
        <mxCell id="MFLTSdnWLh1GmXmubi2J-30" value="" style="rounded=1;whiteSpace=wrap;html=1;fillColor=#fa6800;fontColor=#000000;strokeColor=#C73500;" vertex="1" parent="1">
          <mxGeometry x="114" y="310" width="596" height="50" as="geometry" />
        </mxCell>
        <mxCell id="MFLTSdnWLh1GmXmubi2J-31" value="智能引擎" style="text;strokeColor=none;align=center;fillColor=none;html=1;verticalAlign=middle;whiteSpace=wrap;rounded=0;fontStyle=1;fontSize=15;" vertex="1" parent="1">
          <mxGeometry x="111" y="300" width="70" height="70" as="geometry" />
        </mxCell>
        <mxCell id="MFLTSdnWLh1GmXmubi2J-32" value="图像上传引擎" style="rounded=0;whiteSpace=wrap;html=1;fontStyle=1;fillColor=#e3c800;fontColor=#000000;strokeColor=#B09500;" vertex="1" parent="1">
          <mxGeometry x="190" y="320" width="80" height="30" as="geometry" />
        </mxCell>
        <mxCell id="MFLTSdnWLh1GmXmubi2J-33" value="展示图片引擎" style="rounded=0;whiteSpace=wrap;html=1;fontStyle=1;fillColor=#e3c800;fontColor=#000000;strokeColor=#B09500;" vertex="1" parent="1">
          <mxGeometry x="320" y="320" width="80" height="30" as="geometry" />
        </mxCell>
        <mxCell id="MFLTSdnWLh1GmXmubi2J-34" value="加载模型引擎" style="rounded=0;whiteSpace=wrap;html=1;fontStyle=1;fillColor=#e3c800;fontColor=#000000;strokeColor=#B09500;" vertex="1" parent="1">
          <mxGeometry x="460" y="320" width="80" height="30" as="geometry" />
        </mxCell>
        <mxCell id="MFLTSdnWLh1GmXmubi2J-35" value="............." style="rounded=0;whiteSpace=wrap;html=1;fontStyle=1;fillColor=#e3c800;fontColor=#000000;strokeColor=#B09500;" vertex="1" parent="1">
          <mxGeometry x="600" y="320" width="80" height="30" as="geometry" />
        </mxCell>
        <mxCell id="MFLTSdnWLh1GmXmubi2J-36" value="" style="shape=singleArrow;direction=north;whiteSpace=wrap;html=1;fillColor=#1ba1e2;strokeColor=#006EAF;fontColor=#ffffff;" vertex="1" parent="1">
          <mxGeometry x="384" y="360" width="30" height="27" as="geometry" />
        </mxCell>
        <mxCell id="MFLTSdnWLh1GmXmubi2J-37" value="数据降维" style="rounded=1;whiteSpace=wrap;html=1;fillColor=#0050ef;strokeColor=#001DBC;fontColor=#ffffff;" vertex="1" parent="1">
          <mxGeometry x="220" y="440" width="80" height="27" as="geometry" />
        </mxCell>
        <mxCell id="MFLTSdnWLh1GmXmubi2J-40" value="数据截断" style="rounded=1;whiteSpace=wrap;html=1;fillColor=#0050ef;strokeColor=#001DBC;fontColor=#ffffff;" vertex="1" parent="1">
          <mxGeometry x="320" y="440" width="80" height="27" as="geometry" />
        </mxCell>
        <mxCell id="MFLTSdnWLh1GmXmubi2J-41" value="数据加载" style="rounded=1;whiteSpace=wrap;html=1;fillColor=#0050ef;strokeColor=#001DBC;fontColor=#ffffff;" vertex="1" parent="1">
          <mxGeometry x="430" y="440" width="80" height="27" as="geometry" />
        </mxCell>
        <mxCell id="MFLTSdnWLh1GmXmubi2J-42" value="数据增强" style="rounded=1;whiteSpace=wrap;html=1;fillColor=#0050ef;strokeColor=#001DBC;fontColor=#ffffff;" vertex="1" parent="1">
          <mxGeometry x="530" y="440" width="90" height="27" as="geometry" />
        </mxCell>
        <mxCell id="MFLTSdnWLh1GmXmubi2J-43" value="" style="rounded=0;whiteSpace=wrap;html=1;fillColor=#fad7ac;strokeColor=#b46504;" vertex="1" parent="1">
          <mxGeometry x="210" y="480" width="420" height="90" as="geometry" />
        </mxCell>
        <mxCell id="MFLTSdnWLh1GmXmubi2J-45" value="&lt;b&gt;结构化数据&lt;/b&gt;" style="shape=datastore;whiteSpace=wrap;html=1;fillColor=#60a917;fontColor=#ffffff;strokeColor=#2D7600;" vertex="1" parent="1">
          <mxGeometry x="235" y="495" width="130" height="60" as="geometry" />
        </mxCell>
        <mxCell id="MFLTSdnWLh1GmXmubi2J-46" value="&lt;b&gt;非结构化数据&lt;/b&gt;" style="shape=datastore;whiteSpace=wrap;html=1;fillColor=#60a917;fontColor=#ffffff;strokeColor=#2D7600;" vertex="1" parent="1">
          <mxGeometry x="450" y="495" width="130" height="60" as="geometry" />
        </mxCell>
        <mxCell id="MFLTSdnWLh1GmXmubi2J-47" value="" style="endArrow=none;dashed=1;html=1;rounded=0;fillColor=#60a917;strokeColor=#2D7600;" edge="1" parent="1" source="MFLTSdnWLh1GmXmubi2J-45">
          <mxGeometry width="50" height="50" relative="1" as="geometry">
            <mxPoint x="200" y="520" as="sourcePoint" />
            <mxPoint x="250" y="470" as="targetPoint" />
          </mxGeometry>
        </mxCell>
        <mxCell id="MFLTSdnWLh1GmXmubi2J-48" value="" style="endArrow=none;dashed=1;html=1;dashPattern=1 3;strokeWidth=2;rounded=0;" edge="1" parent="1">
          <mxGeometry width="50" height="50" relative="1" as="geometry">
            <mxPoint x="370" y="320" as="sourcePoint" />
            <mxPoint x="420" y="270" as="targetPoint" />
          </mxGeometry>
        </mxCell>
        <mxCell id="MFLTSdnWLh1GmXmubi2J-49" value="" style="endArrow=none;dashed=1;html=1;rounded=0;fillColor=#60a917;strokeColor=#2D7600;" edge="1" parent="1" source="MFLTSdnWLh1GmXmubi2J-46">
          <mxGeometry width="50" height="50" relative="1" as="geometry">
            <mxPoint x="240" y="520" as="sourcePoint" />
            <mxPoint x="290" y="470" as="targetPoint" />
          </mxGeometry>
        </mxCell>
        <mxCell id="MFLTSdnWLh1GmXmubi2J-50" value="" style="endArrow=none;dashed=1;html=1;rounded=0;fillColor=#60a917;strokeColor=#2D7600;exitX=0.708;exitY=0.022;exitDx=0;exitDy=0;exitPerimeter=0;" edge="1" parent="1" source="MFLTSdnWLh1GmXmubi2J-45">
          <mxGeometry width="50" height="50" relative="1" as="geometry">
            <mxPoint x="300" y="520" as="sourcePoint" />
            <mxPoint x="350" y="470" as="targetPoint" />
          </mxGeometry>
        </mxCell>
        <mxCell id="MFLTSdnWLh1GmXmubi2J-51" value="" style="endArrow=none;dashed=1;html=1;rounded=0;fillColor=#60a917;strokeColor=#2D7600;" edge="1" parent="1" source="MFLTSdnWLh1GmXmubi2J-46">
          <mxGeometry width="50" height="50" relative="1" as="geometry">
            <mxPoint x="330" y="510" as="sourcePoint" />
            <mxPoint x="380" y="460" as="targetPoint" />
          </mxGeometry>
        </mxCell>
        <mxCell id="MFLTSdnWLh1GmXmubi2J-52" value="" style="endArrow=none;dashed=1;html=1;rounded=0;exitX=0.826;exitY=0.433;exitDx=0;exitDy=0;exitPerimeter=0;fillColor=#60a917;strokeColor=#2D7600;" edge="1" parent="1" source="MFLTSdnWLh1GmXmubi2J-45">
          <mxGeometry width="50" height="50" relative="1" as="geometry">
            <mxPoint x="430" y="510" as="sourcePoint" />
            <mxPoint x="480" y="460" as="targetPoint" />
          </mxGeometry>
        </mxCell>
        <mxCell id="MFLTSdnWLh1GmXmubi2J-53" value="" style="endArrow=none;dashed=1;html=1;rounded=0;exitX=0.413;exitY=0.311;exitDx=0;exitDy=0;exitPerimeter=0;fillColor=#60a917;strokeColor=#2D7600;" edge="1" parent="1" source="MFLTSdnWLh1GmXmubi2J-46">
          <mxGeometry width="50" height="50" relative="1" as="geometry">
            <mxPoint x="440" y="510" as="sourcePoint" />
            <mxPoint x="490" y="460" as="targetPoint" />
          </mxGeometry>
        </mxCell>
        <mxCell id="MFLTSdnWLh1GmXmubi2J-54" value="" style="endArrow=none;dashed=1;html=1;rounded=0;exitX=0.921;exitY=0.4;exitDx=0;exitDy=0;exitPerimeter=0;fillColor=#60a917;strokeColor=#2D7600;" edge="1" parent="1" source="MFLTSdnWLh1GmXmubi2J-46">
          <mxGeometry width="50" height="50" relative="1" as="geometry">
            <mxPoint x="530" y="510" as="sourcePoint" />
            <mxPoint x="580" y="460" as="targetPoint" />
          </mxGeometry>
        </mxCell>
        <mxCell id="MFLTSdnWLh1GmXmubi2J-55" value="" style="endArrow=none;dashed=1;html=1;rounded=0;exitX=0.544;exitY=0.256;exitDx=0;exitDy=0;exitPerimeter=0;fillColor=#60a917;strokeColor=#2D7600;" edge="1" parent="1" source="MFLTSdnWLh1GmXmubi2J-45">
          <mxGeometry width="50" height="50" relative="1" as="geometry">
            <mxPoint x="510" y="510" as="sourcePoint" />
            <mxPoint x="560" y="460" as="targetPoint" />
          </mxGeometry>
        </mxCell>
        <mxCell id="MFLTSdnWLh1GmXmubi2J-56" value="" style="rounded=1;whiteSpace=wrap;html=1;fillColor=#dae8fc;strokeColor=#6c8ebf;" vertex="1" parent="1">
          <mxGeometry x="114" y="610" width="606" height="80" as="geometry" />
        </mxCell>
        <mxCell id="MFLTSdnWLh1GmXmubi2J-57" value="接&lt;br&gt;入&lt;br&gt;层" style="text;strokeColor=none;align=center;fillColor=none;html=1;verticalAlign=middle;whiteSpace=wrap;rounded=0;fontStyle=1;fontSize=15;" vertex="1" parent="1">
          <mxGeometry x="101" y="614" width="60" height="70" as="geometry" />
        </mxCell>
        <mxCell id="MFLTSdnWLh1GmXmubi2J-59" value="" style="shape=singleArrow;direction=north;whiteSpace=wrap;html=1;fillColor=#1ba1e2;strokeColor=#006EAF;fontColor=#ffffff;" vertex="1" parent="1">
          <mxGeometry x="380" y="580" width="30" height="27" as="geometry" />
        </mxCell>
        <mxCell id="MFLTSdnWLh1GmXmubi2J-62" value="" style="rounded=0;whiteSpace=wrap;html=1;align=center;fillColor=#f5f5f5;strokeColor=#666666;fontColor=#333333;" vertex="1" parent="1">
          <mxGeometry x="170" y="620" width="170" height="60" as="geometry" />
        </mxCell>
        <mxCell id="MFLTSdnWLh1GmXmubi2J-63" value="图片" style="rounded=0;whiteSpace=wrap;html=1;fillColor=#f5f5f5;fontColor=#333333;strokeColor=#666666;" vertex="1" parent="1">
          <mxGeometry x="176" y="650" width="46" height="25" as="geometry" />
        </mxCell>
        <mxCell id="MFLTSdnWLh1GmXmubi2J-65" value="......." style="rounded=0;whiteSpace=wrap;html=1;fillColor=#f5f5f5;fontColor=#333333;strokeColor=#666666;" vertex="1" parent="1">
          <mxGeometry x="230" y="650" width="46" height="25" as="geometry" />
        </mxCell>
        <mxCell id="MFLTSdnWLh1GmXmubi2J-66" value="模型" style="rounded=0;whiteSpace=wrap;html=1;fillColor=#f5f5f5;fontColor=#333333;strokeColor=#666666;" vertex="1" parent="1">
          <mxGeometry x="284" y="650" width="46" height="25" as="geometry" />
        </mxCell>
        <mxCell id="MFLTSdnWLh1GmXmubi2J-67" value="&lt;b&gt;非结构化数据&lt;/b&gt;" style="text;strokeColor=none;align=center;fillColor=none;html=1;verticalAlign=middle;whiteSpace=wrap;rounded=0;" vertex="1" parent="1">
          <mxGeometry x="220" y="620" width="80" height="30" as="geometry" />
        </mxCell>
        <mxCell id="MFLTSdnWLh1GmXmubi2J-68" value="" style="rounded=0;whiteSpace=wrap;html=1;align=center;fillColor=#f5f5f5;strokeColor=#666666;fontColor=#333333;" vertex="1" parent="1">
          <mxGeometry x="440" y="620" width="220" height="60" as="geometry" />
        </mxCell>
        <mxCell id="MFLTSdnWLh1GmXmubi2J-69" value="&lt;b&gt;结构化数据&lt;/b&gt;" style="text;strokeColor=none;align=center;fillColor=none;html=1;verticalAlign=middle;whiteSpace=wrap;rounded=0;" vertex="1" parent="1">
          <mxGeometry x="497" y="619" width="80" height="30" as="geometry" />
        </mxCell>
        <mxCell id="MFLTSdnWLh1GmXmubi2J-70" value="姓名" style="rounded=0;whiteSpace=wrap;html=1;fillColor=#f5f5f5;fontColor=#333333;strokeColor=#666666;" vertex="1" parent="1">
          <mxGeometry x="447" y="650" width="46" height="25" as="geometry" />
        </mxCell>
        <mxCell id="MFLTSdnWLh1GmXmubi2J-71" value="密码" style="rounded=0;whiteSpace=wrap;html=1;fillColor=#f5f5f5;fontColor=#333333;strokeColor=#666666;" vertex="1" parent="1">
          <mxGeometry x="502" y="650" width="46" height="25" as="geometry" />
        </mxCell>
        <mxCell id="MFLTSdnWLh1GmXmubi2J-72" value="......." style="rounded=0;whiteSpace=wrap;html=1;fillColor=#f5f5f5;fontColor=#333333;strokeColor=#666666;" vertex="1" parent="1">
          <mxGeometry x="554" y="650" width="36" height="25" as="geometry" />
        </mxCell>
        <mxCell id="MFLTSdnWLh1GmXmubi2J-73" value="诊断日期" style="rounded=0;whiteSpace=wrap;html=1;fillColor=#f5f5f5;fontColor=#333333;strokeColor=#666666;" vertex="1" parent="1">
          <mxGeometry x="597" y="650" width="60" height="25" as="geometry" />
        </mxCell>
        <mxCell id="MFLTSdnWLh1GmXmubi2J-74" value="" style="rounded=1;whiteSpace=wrap;html=1;fillColor=#fad7ac;strokeColor=#b46504;" vertex="1" parent="1">
          <mxGeometry x="114" y="715" width="266" height="80" as="geometry" />
        </mxCell>
        <mxCell id="MFLTSdnWLh1GmXmubi2J-75" value="外&lt;br&gt;部&lt;br&gt;数&lt;br&gt;据" style="text;strokeColor=none;align=center;fillColor=none;html=1;verticalAlign=middle;whiteSpace=wrap;rounded=0;fontStyle=1;fontSize=15;" vertex="1" parent="1">
          <mxGeometry x="101" y="718" width="60" height="70" as="geometry" />
        </mxCell>
        <mxCell id="MFLTSdnWLh1GmXmubi2J-76" value="互联网开放数据" style="rounded=0;whiteSpace=wrap;html=1;fillColor=#fad7ac;strokeColor=#b46504;" vertex="1" parent="1">
          <mxGeometry x="180" y="726" width="140" height="25" as="geometry" />
        </mxCell>
        <mxCell id="MFLTSdnWLh1GmXmubi2J-77" value="合作伙伴数据" style="rounded=0;whiteSpace=wrap;html=1;fillColor=#fad7ac;strokeColor=#b46504;" vertex="1" parent="1">
          <mxGeometry x="180" y="763" width="140" height="25" as="geometry" />
        </mxCell>
        <mxCell id="MFLTSdnWLh1GmXmubi2J-78" value="" style="rounded=1;whiteSpace=wrap;html=1;fillColor=#fad7ac;strokeColor=#b46504;" vertex="1" parent="1">
          <mxGeometry x="452" y="718" width="266" height="80" as="geometry" />
        </mxCell>
        <mxCell id="MFLTSdnWLh1GmXmubi2J-79" value="内&lt;br&gt;部&lt;br&gt;数&lt;br&gt;据" style="text;strokeColor=none;align=center;fillColor=none;html=1;verticalAlign=middle;whiteSpace=wrap;rounded=0;fontStyle=1;fontSize=15;" vertex="1" parent="1">
          <mxGeometry x="442" y="725" width="60" height="70" as="geometry" />
        </mxCell>
        <mxCell id="MFLTSdnWLh1GmXmubi2J-80" value="百度AI studio开源&lt;br&gt;影像集" style="rounded=0;whiteSpace=wrap;html=1;fillColor=#fad7ac;strokeColor=#b46504;" vertex="1" parent="1">
          <mxGeometry x="515" y="725" width="140" height="65" as="geometry" />
        </mxCell>
      </root>
    </mxGraphModel>
  </diagram>
</mxfile>
